Coordinates
version=1
nRows=10
nColumns=34
inDegrees=yes

Units are S.I. units (second, meters, Newtons, ...)
If the header above contains a line with 'inDegrees', this indicates whether rotational values are in degrees (yes) or radians (no).

endheader
time	pelvis_tilt	pelvis_list	pelvis_rotation	pelvis_tx	pelvis_ty	pelvis_tz	hip_flexion_r	hip_adduction_r	hip_rotation_r	knee_angle_r	ankle_angle_r	subtalar_angle_r	mtp_angle_r	hip_flexion_l	hip_adduction_l	hip_rotation_l	knee_angle_l	ankle_angle_l	subtalar_angle_l	mtp_angle_l	lumbar_extension	lumbar_bending	lumbar_rotation	arm_flex_r	arm_add_r	arm_rot_r	elbow_flex_r	pro_sup_r	arm_flex_l	arm_add_l	arm_rot_l	elbow_flex_l	pro_sup_l
      0.00000000	      1.42312176	      0.05458467	      1.68054164	      0.66818132	      1.14810373	     -0.09009442	     -4.90329618	     -5.16664083	    -11.17105936	      1.44570746	     -5.53603935	    -21.28329311	      0.00000000	     -3.94405174	     -3.58430033	     -4.83628047	      0.36547886	     -0.83147937	    -13.41281578	      0.00000000	     -5.84703262	      4.99312327	     -3.71637304	     -0.82805682	     -8.32471937	     19.12619913	     18.63505732	     66.51801291	    -31.42176110	   -143.51334886	   -137.69198152	     58.06248860	     64.73833760
      0.01666670	     -3.28329352	     -1.35758814	      2.29460988	      0.67060121	      1.13742376	     -0.09319977	      0.02853769	     -3.88842687	    -12.93929074	      1.16493423	     -3.53443890	    -17.37338422	      0.00000000	      1.73721523	     -4.96701093	     -6.86763772	      0.00000000	      0.54544075	     -8.83138770	      0.00000000	     -1.03217731	      6.15903871	     -7.90071766	      0.41392086	     -9.34793122	     12.79919871	     21.57956873	     67.30383646	    -23.23665814	   -145.72478910	   -134.05950627	     45.01220070	     64.37290961
      0.03333330	     -4.68474105	     -1.67533862	      2.29588217	      0.67108715	      1.13680715	     -0.09312892	      1.38056928	     -3.44156927	    -13.09892432	      0.64710374	     -4.07229832	    -19.06993960	      0.00000000	      3.54051093	     -5.17477915	     -8.06127361	      0.00000000	      1.28069656	     -6.48438583	      0.00000000	      0.49930001	      6.12102444	     -7.63811590	      0.04926626	     -9.18588712	      5.44072614	     22.73105346	     68.77225975	    -20.32525919	   -147.58615966	   -130.11191793	     41.43129980	     66.34863103
      0.05000000	     -5.44963088	     -1.94859493	      2.74357221	      0.67060875	      1.13864298	     -0.09406491	      1.88308866	     -3.06206671	    -14.14375270	      0.00000000	     -3.23429279	    -17.45100859	      0.00000000	      4.54594201	     -5.41901018	     -8.30625366	      0.00000000	      1.48603567	     -5.49172209	      0.00000000	      2.01373610	      5.89135296	     -7.60206663	     -0.97440476	     -8.59627514	      1.86293569	     24.22613255	     70.30753819	    -21.07117409	   -148.87198104	   -129.54353004	     41.29204139	     68.12693548
      0.06666670	     -5.33963628	     -2.03391951	      2.83204935	      0.66969794	      1.13773372	     -0.09388755	      1.79984281	     -2.88028328	    -14.45375198	      0.00000000	     -3.09415042	    -18.07505109	      0.00000000	      4.42689063	     -5.56525942	     -8.44965471	      0.00000000	      1.94857787	     -4.41359301	      0.00000000	      1.77215986	      5.87640688	     -6.29381848	     -2.24792230	     -7.00836835	     -7.22632122	     26.35749538	     76.35237653	    -21.13242549	   -150.00464702	   -130.19983959	     40.30098886	     73.26229422
      0.08333330	     -5.53709654	     -2.12133289	      2.62068180	      0.66943496	      1.13644874	     -0.09399871	      2.01945796	     -2.74820318	    -14.44026358	      0.00000000	     -2.68242704	    -18.07900919	      0.00000000	      4.54657139	     -5.64797877	     -8.11576930	      0.00000000	      2.30360438	     -4.52084552	      0.00000000	      2.18349077	      6.03393273	     -5.75060590	     -2.57101707	     -6.82075309	     -7.13255765	     25.93162805	     76.66244183	    -20.89916162	   -150.27160406	   -130.35201305	     40.77028000	     73.38115171
      0.10000000	     -5.71197774	     -2.11271014	      2.47862485	      0.66415847	      1.13507998	     -0.09596988	      2.31163747	     -2.79199097	    -14.53006813	      0.00000000	     -2.42398567	    -18.01209108	      0.00000000	      4.74942960	     -5.60965326	     -7.82619135	      0.00000000	      2.48679774	     -4.67427342	      0.00000000	      2.28662159	      6.22695717	     -5.20167534	     -2.52183111	     -6.71899517	     -7.09192409	     25.46437568	     77.05951135	    -20.56808814	   -150.31120174	   -130.87790822	     41.57358266	     73.46801830
      0.11666670	     -5.62119670	     -2.14931926	      2.32604751	      0.66910898	      1.13513195	     -0.09391182	      2.20845210	     -2.72106394	    -14.60741365	      0.00000000	     -2.04081612	    -17.54727531	      0.00000000	      4.53305853	     -5.70076601	     -7.61114009	      0.00000000	      2.35090711	     -4.99944422	      0.00000000	      2.79048846	      6.39742153	     -3.72488948	     -3.19262395	     -6.95889800	     -7.67328157	     24.68109538	     87.57184942	    -24.46502994	   -151.05328292	   -139.40568668	     44.21311693	     75.75360116
      0.13333330	     -5.83323307	     -2.28867351	      2.66197125	      0.66377380	      1.12845035	     -0.09638376	      2.48765012	     -2.62012423	    -15.04087499	      0.00000000	     -2.13946376	    -17.69992225	      0.00000000	      4.89124147	     -5.77072275	     -7.44444663	      0.00000000	      2.53117035	     -5.14842597	      0.00000000	      2.87916852	      6.59561098	     -4.13915368	     -3.07654672	     -7.01753588	     -7.93833596	     24.86029908	     87.88406101	    -23.89050362	   -151.21570550	   -139.59720850	     44.50618408	     75.87858730
      0.15000000	     -5.87984541	     -2.25577634	      2.75413015	      0.65822924	      1.12815231	     -0.09861945	      2.66256131	     -2.74347655	    -15.12516199	      0.00000000	     -2.07400333	    -17.78118552	      0.00000000	      5.02100706	     -5.69842364	     -7.33475846	      0.00000000	      2.47564276	     -5.17302666	      0.00000000	      2.77866005	      6.69331828	     -4.24576157	     -2.64407025	     -7.28666271	     -8.00443921	     25.07588434	     87.97440648	    -24.07479167	   -151.42640453	   -139.56436074	     44.53414210	     75.91627095
